<svg width="32" height="31" viewBox="0 0 32 31" fill="none" xmlns="http://www.w3.org/2000/svg">
<path d="M15.543 0.500013C17.0277 0.497289 18.4799 0.933874 19.7159 1.75456C20.9519 2.57524 21.9163 3.74317 22.487 5.11064C23.0577 6.47812 23.2091 7.98372 22.9221 9.43706C22.6351 10.8904 21.9226 12.2262 20.8747 13.2755C19.8268 14.3249 18.4905 15.0406 17.0348 15.3323C15.5792 15.624 14.0695 15.4784 12.6968 14.9141C11.324 14.3497 10.1498 13.392 9.3227 12.1618C8.49555 10.9317 8.05261 9.48452 8.04988 8.00325V7.98947C8.04987 6.00553 8.83888 4.10264 10.2437 2.69849C11.6485 1.29434 13.5544 0.503664 15.543 0.500013ZM15.543 18.2543C23.93 18.2543 30.543 23.827 30.543 26.6024V30.5H0.542969V26.5327C0.542969 23.7573 7.15509 18.2543 15.543 18.2543Z" stroke="black" stroke-linecap="round" stroke-linejoin="round"/>
</svg>
