<svg width="51" height="50" viewBox="0 0 51 50" fill="none" xmlns="http://www.w3.org/2000/svg">
<g clip-path="url(#clip0_179_1026)">
<path d="M19.0027 -3.81818C18.2754 -3.81818 17.6334 -4.00189 17.0766 -4.36932C16.5198 -4.74053 16.0841 -5.26326 15.7698 -5.9375C15.4554 -6.61553 15.2982 -7.41667 15.2982 -8.34091C15.2982 -9.25758 15.4554 -10.053 15.7698 -10.7273C16.0841 -11.4015 16.5216 -11.9223 17.0823 -12.2898C17.6429 -12.6572 18.2906 -12.8409 19.0254 -12.8409C19.5936 -12.8409 20.0425 -12.7462 20.372 -12.5568C20.7054 -12.3712 20.9591 -12.1591 21.1334 -11.9205C21.3114 -11.6856 21.4497 -11.4924 21.5482 -11.3409H21.6618V-15.6364H23.0027V-4H21.7073V-5.34091H21.5482C21.4497 -5.18182 21.3095 -4.98106 21.1277 -4.73864C20.9459 -4.5 20.6864 -4.28598 20.3493 -4.09659C20.0122 -3.91098 19.5633 -3.81818 19.0027 -3.81818ZM19.1845 -5.02273C19.7224 -5.02273 20.177 -5.16288 20.5482 -5.44318C20.9194 -5.72727 21.2016 -6.11932 21.3948 -6.61932C21.5879 -7.12311 21.6845 -7.70455 21.6845 -8.36364C21.6845 -9.01515 21.5898 -9.58523 21.4004 -10.0739C21.211 -10.5663 20.9307 -10.9489 20.5595 -11.2216C20.1883 -11.4981 19.73 -11.6364 19.1845 -11.6364C18.6163 -11.6364 18.1429 -11.4905 17.7641 -11.1989C17.3891 -10.911 17.1069 -10.5189 16.9175 -10.0227C16.7319 -9.5303 16.6391 -8.97727 16.6391 -8.36364C16.6391 -7.74242 16.7338 -7.17803 16.9232 -6.67045C17.1163 -6.16667 17.4004 -5.76515 17.7754 -5.46591C18.1542 -5.17045 18.6239 -5.02273 19.1845 -5.02273ZM28.2129 -3.79545C27.6599 -3.79545 27.158 -3.89962 26.7073 -4.10795C26.2565 -4.32008 25.8985 -4.625 25.6334 -5.02273C25.3682 -5.42424 25.2357 -5.90909 25.2357 -6.47727C25.2357 -6.97727 25.3341 -7.38258 25.5311 -7.69318C25.7281 -8.00758 25.9913 -8.25379 26.3209 -8.43182C26.6504 -8.60985 27.0141 -8.74242 27.4118 -8.82955C27.8133 -8.92045 28.2167 -8.99242 28.622 -9.04545C29.1523 -9.11364 29.5823 -9.16477 29.9118 -9.19886C30.2451 -9.23674 30.4876 -9.29924 30.6391 -9.38636C30.7944 -9.47348 30.872 -9.625 30.872 -9.84091V-9.88636C30.872 -10.447 30.7186 -10.8826 30.4118 -11.1932C30.1088 -11.5038 29.6485 -11.6591 29.0311 -11.6591C28.391 -11.6591 27.8891 -11.5189 27.5254 -11.2386C27.1618 -10.9583 26.9061 -10.6591 26.7584 -10.3409L25.4857 -10.7955C25.7129 -11.3258 26.016 -11.7386 26.3948 -12.0341C26.7773 -12.3333 27.194 -12.5417 27.6448 -12.6591C28.0993 -12.7803 28.5463 -12.8409 28.9857 -12.8409C29.266 -12.8409 29.5879 -12.8068 29.9516 -12.7386C30.319 -12.6742 30.6732 -12.5398 31.0141 -12.3352C31.3588 -12.1307 31.6448 -11.822 31.872 -11.4091C32.0993 -10.9962 32.2129 -10.4432 32.2129 -9.75V-4H30.872V-5.18182H30.8038C30.7129 -4.99242 30.5614 -4.78977 30.3493 -4.57386C30.1372 -4.35795 29.855 -4.17424 29.5027 -4.02273C29.1504 -3.87121 28.7205 -3.79545 28.2129 -3.79545ZM28.4175 -5C28.9478 -5 29.3948 -5.10417 29.7584 -5.3125C30.1258 -5.52083 30.4023 -5.78977 30.5879 -6.11932C30.7773 -6.44886 30.872 -6.79545 30.872 -7.15909V-8.38636C30.8152 -8.31818 30.6902 -8.25568 30.497 -8.19886C30.3076 -8.14583 30.0879 -8.09849 29.8379 -8.05682C29.5917 -8.01894 29.3512 -7.98485 29.1163 -7.95455C28.8853 -7.92803 28.6978 -7.9053 28.5538 -7.88636C28.2054 -7.84091 27.8796 -7.76705 27.5766 -7.66477C27.2773 -7.56629 27.0349 -7.41667 26.8493 -7.21591C26.6675 -7.01894 26.5766 -6.75 26.5766 -6.40909C26.5766 -5.94318 26.7489 -5.59091 27.0936 -5.35227C27.4421 -5.11742 27.8834 -5 28.4175 -5ZM15.7073 20V11.2727H17.0027V12.5909H17.0936C17.2527 12.1591 17.5406 11.8087 17.9573 11.5398C18.3739 11.2708 18.8436 11.1364 19.3663 11.1364C19.4648 11.1364 19.5879 11.1383 19.7357 11.142C19.8834 11.1458 19.9951 11.1515 20.0709 11.1591V12.5227C20.0254 12.5114 19.9213 12.4943 19.7584 12.4716C19.5993 12.4451 19.4307 12.4318 19.2527 12.4318C18.8285 12.4318 18.4497 12.5208 18.1163 12.6989C17.7868 12.8731 17.5254 13.1155 17.3323 13.4261C17.1429 13.733 17.0482 14.0833 17.0482 14.4773V20H15.7073ZM22.9104 16.8182L22.8877 15.1591H23.1604L26.9786 11.2727H28.6377L24.5695 15.3864H24.4558L22.9104 16.8182ZM21.6604 20V8.36364H23.0013V20H21.6604ZM27.2058 20L23.7967 15.6818L24.7513 14.75L28.9104 20H27.2058ZM36.3862 20V21.25H29.1135V20H36.3862ZM15.7073 44V35.2727H17.0027V36.6364H17.1163C17.2982 36.1705 17.5917 35.8087 17.997 35.5511C18.4023 35.2898 18.8891 35.1591 19.4573 35.1591C20.033 35.1591 20.5122 35.2898 20.8948 35.5511C21.2811 35.8087 21.5823 36.1705 21.7982 36.6364H21.8891C22.1126 36.1856 22.4478 35.8277 22.8948 35.5625C23.3417 35.2936 23.8777 35.1591 24.5027 35.1591C25.283 35.1591 25.9213 35.4034 26.4175 35.892C26.9137 36.3769 27.1618 37.1326 27.1618 38.1591V44H25.8209V38.1591C25.8209 37.5152 25.6448 37.0549 25.2925 36.7784C24.9402 36.5019 24.5254 36.3636 24.0482 36.3636C23.4345 36.3636 22.9591 36.5492 22.622 36.9205C22.2849 37.2879 22.1163 37.7538 22.1163 38.3182V44H20.7527V38.0227C20.7527 37.5265 20.5917 37.1269 20.2698 36.8239C19.9478 36.517 19.533 36.3636 19.0254 36.3636C18.677 36.3636 18.3512 36.4564 18.0482 36.642C17.7489 36.8277 17.5065 37.0852 17.3209 37.4148C17.1391 37.7405 17.0482 38.1174 17.0482 38.5455V44H15.7073ZM33.159 44.1818C32.3711 44.1818 31.6798 43.9943 31.0851 43.6193C30.4942 43.2443 30.0321 42.7197 29.6987 42.0455C29.3692 41.3712 29.2044 40.5833 29.2044 39.6818C29.2044 38.7727 29.3692 37.9792 29.6987 37.3011C30.0321 36.6231 30.4942 36.0966 31.0851 35.7216C31.6798 35.3466 32.3711 35.1591 33.159 35.1591C33.9468 35.1591 34.6362 35.3466 35.2271 35.7216C35.8218 36.0966 36.284 36.6231 36.6135 37.3011C36.9468 37.9792 37.1135 38.7727 37.1135 39.6818C37.1135 40.5833 36.9468 41.3712 36.6135 42.0455C36.284 42.7197 35.8218 43.2443 35.2271 43.6193C34.6362 43.9943 33.9468 44.1818 33.159 44.1818ZM33.159 42.9773C33.7574 42.9773 34.2499 42.8239 34.6362 42.517C35.0226 42.2102 35.3086 41.8068 35.4942 41.3068C35.6798 40.8068 35.7726 40.2652 35.7726 39.6818C35.7726 39.0985 35.6798 38.5549 35.4942 38.0511C35.3086 37.5473 35.0226 37.1402 34.6362 36.8295C34.2499 36.5189 33.7574 36.3636 33.159 36.3636C32.5605 36.3636 32.068 36.5189 31.6817 36.8295C31.2953 37.1402 31.0093 37.5473 30.8237 38.0511C30.6381 38.5549 30.5453 39.0985 30.5453 39.6818C30.5453 40.2652 30.6381 40.8068 30.8237 41.3068C31.0093 41.8068 31.2953 42.2102 31.6817 42.517C32.068 42.8239 32.5605 42.9773 33.159 42.9773ZM19.0027 68.1818C18.2754 68.1818 17.6334 67.9981 17.0766 67.6307C16.5198 67.2595 16.0841 66.7367 15.7698 66.0625C15.4554 65.3845 15.2982 64.5833 15.2982 63.6591C15.2982 62.7424 15.4554 61.947 15.7698 61.2727C16.0841 60.5985 16.5216 60.0777 17.0823 59.7102C17.6429 59.3428 18.2906 59.1591 19.0254 59.1591C19.5936 59.1591 20.0425 59.2538 20.372 59.4432C20.7054 59.6288 20.9591 59.8409 21.1334 60.0795C21.3114 60.3144 21.4497 60.5076 21.5482 60.6591H21.6618V56.3636H23.0027V68H21.7073V66.6591H21.5482C21.4497 66.8182 21.3095 67.0189 21.1277 67.2614C20.9459 67.5 20.6864 67.714 20.3493 67.9034C20.0122 68.089 19.5633 68.1818 19.0027 68.1818ZM19.1845 66.9773C19.7224 66.9773 20.177 66.8371 20.5482 66.5568C20.9194 66.2727 21.2016 65.8807 21.3948 65.3807C21.5879 64.8769 21.6845 64.2955 21.6845 63.6364C21.6845 62.9848 21.5898 62.4148 21.4004 61.9261C21.211 61.4337 20.9307 61.0511 20.5595 60.7784C20.1883 60.5019 19.73 60.3636 19.1845 60.3636C18.6163 60.3636 18.1429 60.5095 17.7641 60.8011C17.3891 61.089 17.1069 61.4811 16.9175 61.9773C16.7319 62.4697 16.6391 63.0227 16.6391 63.6364C16.6391 64.2576 16.7338 64.822 16.9232 65.3295C17.1163 65.8333 17.4004 66.2348 17.7754 66.5341C18.1542 66.8295 18.6239 66.9773 19.1845 66.9773ZM29.3038 68.1818C28.4629 68.1818 27.7376 67.9962 27.1277 67.625C26.5216 67.25 26.0538 66.7273 25.7243 66.0568C25.3985 65.3826 25.2357 64.5985 25.2357 63.7045C25.2357 62.8106 25.3985 62.0227 25.7243 61.3409C26.0538 60.6553 26.5122 60.1212 27.0993 59.7386C27.6902 59.3523 28.3796 59.1591 29.1675 59.1591C29.622 59.1591 30.0709 59.2348 30.5141 59.3864C30.9573 59.5379 31.3607 59.7841 31.7243 60.125C32.0879 60.4621 32.3777 60.9091 32.5936 61.4659C32.8095 62.0227 32.9175 62.7083 32.9175 63.5227V64.0909H26.1902V62.9318H31.5538C31.5538 62.4394 31.4554 62 31.2584 61.6136C31.0652 61.2273 30.7887 60.9223 30.4288 60.6989C30.0728 60.4754 29.6523 60.3636 29.1675 60.3636C28.6334 60.3636 28.1713 60.4962 27.7811 60.7614C27.3948 61.0227 27.0974 61.3636 26.8891 61.7841C26.6807 62.2045 26.5766 62.6553 26.5766 63.1364V63.9091C26.5766 64.5682 26.6902 65.1269 26.9175 65.5852C27.1485 66.0398 27.4686 66.3864 27.8777 66.625C28.2868 66.8598 28.7622 66.9773 29.3038 66.9773C29.6561 66.9773 29.9743 66.928 30.2584 66.8295C30.5463 66.7273 30.7944 66.5758 31.0027 66.375C31.211 66.1705 31.372 65.9167 31.4857 65.6136L32.7811 65.9773C32.6448 66.4167 32.4156 66.803 32.0936 67.1364C31.7716 67.4659 31.3739 67.7235 30.9004 67.9091C30.427 68.0909 29.8948 68.1818 29.3038 68.1818Z" fill="#444746"/>
</g>
<rect x="1" y="0.5" width="49" height="49" rx="24.5" stroke="#747775"/>
<defs>
<clipPath id="clip0_179_1026">
<rect x="1.5" y="1" width="48" height="48" rx="24" fill="white"/>
</clipPath>
</defs>
</svg>
