<svg width="30" height="30" viewBox="0 0 30 30" fill="none" xmlns="http://www.w3.org/2000/svg">
<path d="M15.9875 26.25L3.75 14.0125V16.5125C3.75 17.175 4.0125 17.8125 4.4875 18.275L14.225 28.0125C15.2 28.9875 16.7875 28.9875 17.7625 28.0125L25.525 20.25C26.5 19.275 26.5 17.6875 25.525 16.7125L15.9875 26.25Z" fill="black"/>
<path d="M14.225 21.7625C14.7125 22.25 15.35 22.5 15.9875 22.5C16.625 22.5 17.2625 22.25 17.75 21.7625L25.5125 14C26.4875 13.025 26.4875 11.4375 25.5125 10.4625L15.775 0.725C15.3125 0.2625 14.675 0 14.0125 0H6.25C4.875 0 3.75 1.125 3.75 2.5V10.2625C3.75 10.925 4.0125 11.5625 4.4875 12.025L14.225 21.7625ZM6.25 2.5H14.0125L23.75 12.2375L15.9875 20L6.25 10.2625V2.5Z" fill="black"/>
<path d="M9.0625 6.875C9.92544 6.875 10.625 6.17544 10.625 5.3125C10.625 4.44956 9.92544 3.75 9.0625 3.75C8.19956 3.75 7.5 4.44956 7.5 5.3125C7.5 6.17544 8.19956 6.875 9.0625 6.875Z" fill="black"/>
</svg>
