<svg width="20" height="30" viewBox="0 0 20 30" fill="none" xmlns="http://www.w3.org/2000/svg">
<path d="M16 1.875C16.5304 1.875 17.0391 2.07254 17.4142 2.42417C17.7893 2.77581 18 3.25272 18 3.75V26.25C18 26.7473 17.7893 27.2242 17.4142 27.5758C17.0391 27.9275 16.5304 28.125 16 28.125H4C3.46957 28.125 2.96086 27.9275 2.58579 27.5758C2.21071 27.2242 2 26.7473 2 26.25V3.75C2 3.25272 2.21071 2.77581 2.58579 2.42417C2.96086 2.07254 3.46957 1.875 4 1.875H16ZM4 0C2.93913 0 1.92172 0.395088 1.17157 1.09835C0.421427 1.80161 0 2.75544 0 3.75V26.25C0 27.2446 0.421427 28.1984 1.17157 28.9016C1.92172 29.6049 2.93913 30 4 30H16C17.0609 30 18.0783 29.6049 18.8284 28.9016C19.5786 28.1984 20 27.2446 20 26.25V3.75C20 2.75544 19.5786 1.80161 18.8284 1.09835C18.0783 0.395088 17.0609 0 16 0L4 0Z" fill="black"/>
<path d="M10 26.25C10.5304 26.25 11.0391 26.0525 11.4142 25.7008C11.7893 25.3492 12 24.8723 12 24.375C12 23.8777 11.7893 23.4008 11.4142 23.0492C11.0391 22.6975 10.5304 22.5 10 22.5C9.46957 22.5 8.96086 22.6975 8.58579 23.0492C8.21071 23.4008 8 23.8777 8 24.375C8 24.8723 8.21071 25.3492 8.58579 25.7008C8.96086 26.0525 9.46957 26.25 10 26.25Z" fill="black"/>
</svg>
