<svg width="36" height="36" viewBox="0 0 36 36" fill="none" xmlns="http://www.w3.org/2000/svg">
<path d="M29.6719 29.7098L29.6635 29.693L23.1371 15.7908L26.1858 11.0095V10.9955C26.3439 10.7336 26.4274 10.4336 26.4274 10.1278C26.4274 9.82199 26.3439 9.52198 26.1858 9.26016L26.1647 9.22641L23.0625 4.78125V1.125C23.0625 0.975816 23.0033 0.832742 22.8978 0.727252C22.7923 0.621763 22.6492 0.5625 22.5 0.5625C22.3509 0.5625 22.2078 0.621763 22.1023 0.727252C21.9968 0.832742 21.9375 0.975816 21.9375 1.125V4.75594L21.0755 5.83453C20.7066 6.29593 20.2387 6.66842 19.7063 6.9244C19.1739 7.18038 18.5908 7.31329 18 7.31329C17.4093 7.31329 16.8262 7.18038 16.2938 6.9244C15.7614 6.66842 15.2934 6.29593 14.9246 5.83453L14.0625 4.75594V1.125C14.0625 0.975816 14.0033 0.832742 13.8978 0.727252C13.7923 0.621763 13.6492 0.5625 13.5 0.5625C13.3509 0.5625 13.2078 0.621763 13.1023 0.727252C12.9968 0.832742 12.9375 0.975816 12.9375 1.125V4.78125L9.82411 9.22359L9.80301 9.25734C9.64498 9.51917 9.56145 9.81918 9.56145 10.125C9.56145 10.4308 9.64498 10.7308 9.80301 10.9927C9.80563 10.9972 9.80798 11.0019 9.81004 11.0067L12.8588 15.788L6.32817 29.693L6.31973 29.7098C6.20949 29.9669 6.16487 30.2473 6.18986 30.5258C6.21485 30.8044 6.30868 31.0723 6.46291 31.3056C6.61714 31.5389 6.82693 31.7302 7.07342 31.8623C7.31991 31.9945 7.59538 32.0632 7.87504 32.0625H28.125C28.404 32.0618 28.6784 31.992 28.9238 31.8593C29.1692 31.7266 29.3778 31.5352 29.5311 31.3021C29.6843 31.069 29.7774 30.8016 29.802 30.5237C29.8266 30.2458 29.7819 29.9662 29.6719 29.7098ZM10.7635 10.4062C10.7141 10.3207 10.6881 10.2237 10.6881 10.125C10.6881 10.0263 10.7141 9.92926 10.7635 9.84375L13.5296 5.89219L14.0471 6.53766C14.5214 7.13045 15.1229 7.60898 15.8072 7.93782C16.4914 8.26667 17.2409 8.43741 18 8.43741C18.7592 8.43741 19.5087 8.26667 20.1929 7.93782C20.8772 7.60898 21.4787 7.13045 21.953 6.53766L22.4705 5.89219L25.2408 9.84375C25.2902 9.92926 25.3162 10.0263 25.3162 10.125C25.3162 10.2237 25.2902 10.3207 25.2408 10.4062L22.1963 15.1875H13.808L10.7635 10.4062ZM28.5933 30.6844C28.5428 30.7625 28.4734 30.8266 28.3916 30.8709C28.3097 30.9151 28.2181 30.938 28.125 30.9375H7.87504C7.78201 30.938 7.69035 30.9151 7.60851 30.8709C7.52667 30.8266 7.45729 30.7625 7.40676 30.6844C7.35508 30.6084 7.32336 30.5207 7.31451 30.4293C7.30566 30.3379 7.31998 30.2457 7.35614 30.1612L13.8572 16.3125H22.1429L28.6439 30.1612C28.6801 30.2457 28.6944 30.3379 28.6856 30.4293C28.6767 30.5207 28.645 30.6084 28.5933 30.6844Z" fill="black"/>
</svg>
