<svg width="30" height="30" viewBox="0 0 30 30" fill="none" xmlns="http://www.w3.org/2000/svg">
<g clip-path="url(#clip0_177_968)">
<path d="M28.8741 7.85953C27.1219 4.36781 25.9402 2.4225 25.3612 2.07797C24.9033 1.80703 24.1116 1.73109 22.6345 1.60969C21.5287 1.51922 20.1534 1.40625 19.537 1.16484L18.9558 0.9375L18.5536 1.41656C18.5231 1.45172 17.0672 3.11672 15.0005 3.11672C12.9206 3.11672 11.4595 1.43344 11.445 1.41609L11.0405 0.942187L10.4625 1.16531C9.84609 1.40719 8.47125 1.51969 7.36594 1.60969C5.88844 1.73109 5.09625 1.80703 4.63969 2.0775C4.05891 2.4225 2.87719 4.36781 1.12594 7.85953L0.9375 8.23453L1.1025 8.62125C2.64937 12.2555 6.29719 13.0547 6.45187 13.087L6.93562 13.1878L6.44156 26.3325L6.42141 26.8725L6.88219 27.142C11.2547 29.7019 18.7439 29.7019 23.1169 27.142L23.5777 26.8725L23.557 26.3325L23.063 13.1878L23.5467 13.087C23.7014 13.0547 27.3492 12.2555 28.8966 8.62125L29.0625 8.23453L28.8741 7.85953ZM26.5144 9.22969C25.5117 10.515 24.2784 11.2261 22.8417 11.3498L22.0678 10.1227L22.6786 26.3662C18.4322 28.852 11.5678 28.8525 7.32094 26.3662L7.93125 10.1227L7.18406 11.3203C5.74828 11.1966 4.51406 10.4845 3.51281 9.20062C3.06138 8.61423 2.69131 7.96948 2.41266 7.28391L2.38313 7.34016C3.14578 5.86875 4.60875 3.13172 5.08266 2.85C5.65969 2.50781 8.59922 2.5275 10.222 2.15812C10.6571 2.60101 11.1349 2.99983 11.6484 3.34875C12.1238 3.67068 12.6353 3.93577 13.1723 4.13859C13.8216 4.37953 14.4736 4.50141 15.1148 4.50141H15.1336C15.9094 4.49766 16.6711 4.31625 17.3986 3.96C18.2016 3.56719 18.9708 2.95406 19.6908 2.14031C21.2948 2.52891 24.3295 2.50172 24.9169 2.85C25.3889 3.13125 26.8444 5.85094 27.6094 7.32609C27.332 8.00713 26.9636 8.64748 26.5144 9.22969Z" fill="black"/>
</g>
<defs>
<clipPath id="clip0_177_968">
<rect width="30" height="30" fill="white"/>
</clipPath>
</defs>
</svg>
