<svg width="26" height="23" viewBox="0 0 26 23" fill="none" xmlns="http://www.w3.org/2000/svg">
<path d="M18.902 1.00002C20.5319 1.00002 22.0633 1.61584 23.2156 2.73173C24.3582 3.84154 25 5.34554 25 6.91361C25 8.48167 24.3582 9.98567 23.2156 11.0955L13.0003 21L2.7838 11.0955C1.64152 9.98572 1 8.48198 1 6.9142C1 5.34643 1.64152 3.84269 2.7838 2.73292C3.34889 2.1819 4.02112 1.74502 4.76155 1.44756C5.50198 1.15011 6.29592 0.997994 7.09741 1.00002C8.72732 1.00002 10.2588 1.61584 11.411 2.73173L12.3466 3.63876L13.0003 4.27248L13.6528 3.63876L14.5884 2.73173C15.1537 2.18108 15.826 1.74453 16.5664 1.44729C17.3068 1.15005 18.1006 0.998035 18.902 1.00002Z" stroke="black" stroke-width="1.5"/>
</svg>
